<svg xmlns="http://www.w3.org/2000/svg" viewBox="0 0 292 152">
  <path fill="#555" d="M15 0h262c0 30 15 46 15 76s-15 46-15 76H15c0-30-15-46-15-76S15 30 15 0Z"/>
  <path fill="#fff" d="M45 30h4v92h-4zm28 0h4v67h-4zm16 0h4v67h-4zm-38 0h2v92h-2zm16 0h2v67h-2zm32 0h2v67h-2zm6 0h2v67h-2zm16 0h2v67h-2zm8 0h2v67h-2zm4 0h6v67h-6zm12 0h4v67h-4zm14 0h8v67h-8zm10 0h6v67h-6zm8 0h4v67h-4zm14 0h6v67h-6zm8 0h4v67h-4zm6 0h8v67h-8zm10 0h4v67h-4zm6 0h4v67h-4zm10 0h6v92h-6zm12 0h4v92h-4zm-92 0h2v67h-2zm4 0h2v67h-2zm30 0h2v67h-2zm54 0h2v92h-2zm-128 0h4v67h-4zm-54 0h6v92h-6zm24 0h6v67h-6zm10.7 104h-5l-8.4-18.8V134h-4v-25h5.5l7.9 18v-18H92c-.5.7-.3 16.7-.3 25zm6.4-16c4.3-4.8 14.7-4.8 14.7 4.6V134h-4.3v-1.7c-11.5 8.7-19.7-11 0-9.8.3-4.6-4.5-5.4-8.1-1.6zm3 10.8c.2 3.6 7.4 3.3 7.5-3-2.7 0-7.3-.4-7.5 3zM136 134h-5l-8.4-18.8V134h-4v-25h5.5l7.9 18v-18h4.3c-1 .3-.1 8-.3 25zm13.4.8c-12.2-.6-11-26.6 0-26.2 11.2.3 11.6 26.2 0 26.2zm3-19.9c-3.7-6.8-8.9 1.4-7.3 9.5zm-6.1 13.4c4.1 7.2 8.8-2.6 7.2-9.5zm17.8-9h15v3.7h-15zm29.2-10.2V134h-4.4v-19.8l-4.3 1.2-1.1-2.7 6.8-3.6zm11 0c13-.7 16.5 1.7 17.3 12.6.1 12.4-8.2 12.7-17.2 12.3zm4.4 3.7v17.7c5.7.4 8.4-2.6 8.5-8.7-.2-6.6-2-9-8.5-9z"/>
</svg>
